<svg width="40" height="40" fill="none" xmlns="http://www.w3.org/2000/svg"><path d="M29.333 1.731c-4.692 0-7.794 2.563-9.333 4.258-1.539-1.695-4.641-4.258-9.333-4.258C4.264 1.731 0 7.685 0 14.355c0 4.99 2.516 14.713 19.37 23.755.393.211.867.211 1.26 0C37.484 29.067 40 19.345 40 14.355 40 7.53 35.61 1.73 29.333 1.73zM20 35.418C11.905 30.967 2.667 23.55 2.667 14.355c0-5.116 3.071-9.957 8-9.957 3.739 0 6.832 2.293 8.2 4.451.523.84 1.748.839 2.268-.003.027-.045 2.807-4.448 8.198-4.448 4.965 0 8 4.89 8 9.957 0 9.196-9.237 16.612-17.333 21.063z" fill="url(#paint0_linear)"/><defs><linearGradient id="paint0_linear" x1="20" y1="1.731" x2="20" y2="38.268" gradientUnits="userSpaceOnUse"><stop stop-color="#FFE5AC"/><stop offset="0" stop-color="#FFE5AC"/><stop offset="1" stop-color="#B99C5D"/></linearGradient></defs></svg>