<svg width="60" height="60" fill="none" xmlns="http://www.w3.org/2000/svg"><rect width="60" height="60" rx="8" fill="#4B729F"/><rect width="60" height="60" rx="8" fill="url(#paint0_linear)"/><path d="M35.625 15h-11.25A9.376 9.376 0 0015 24.375v11.25A9.376 9.376 0 0024.375 45h11.25A9.376 9.376 0 0045 35.625v-11.25A9.376 9.376 0 0035.625 15zm6.563 20.625a6.57 6.57 0 01-6.563 6.563h-11.25a6.57 6.57 0 01-6.563-6.563v-11.25a6.57 6.57 0 016.563-6.563h11.25a6.57 6.57 0 016.563 6.563v11.25z" fill="#fff"/><path d="M30 22.5a7.5 7.5 0 100 15 7.5 7.5 0 000-15zm0 12.188A4.694 4.694 0 0125.312 30 4.693 4.693 0 0130 25.312 4.693 4.693 0 0134.688 30 4.694 4.694 0 0130 34.688zm8.063-11.751a1 1 0 100-1.998 1 1 0 000 1.998z" fill="#fff"/><defs><linearGradient id="paint0_linear" x1="5.492" y1="54.508" x2="54.508" y2="5.492" gradientUnits="userSpaceOnUse"><stop stop-color="#FFC107"/><stop offset=".507" stop-color="#F44336"/><stop offset=".99" stop-color="#9C27B0"/></linearGradient></defs></svg>