<svg width="60" height="60" fill="none" xmlns="http://www.w3.org/2000/svg"><rect width="60" height="60" rx="8" fill="#4B729F"/><g clip-path="url(#clip0)"><path d="M39.894 31.285c-.485-.612-.346-.885 0-1.432.006-.007 4.01-5.539 4.422-7.415l.003-.002c.205-.683 0-1.186-.992-1.186h-3.28c-.834 0-1.22.431-1.426.914 0 0-1.67 3.997-4.032 6.589-.763.748-1.115.988-1.532.988-.205 0-.523-.24-.523-.923v-6.382c0-.82-.234-1.186-.925-1.186H26.45c-.524 0-.835.383-.835.739 0 .777 1.181.956 1.304 3.144v4.746c0 1.04-.189 1.231-.608 1.231-1.114 0-3.82-4.014-5.425-8.607-.323-.892-.64-1.252-1.48-1.252h-3.282c-.936 0-1.125.432-1.125.914 0 .853 1.115 5.091 5.185 10.691 2.713 3.823 6.533 5.894 10.008 5.894 2.088 0 2.343-.46 2.343-1.251 0-3.653-.189-3.998.858-3.998.485 0 1.32.24 3.27 2.084 2.228 2.187 2.595 3.165 3.842 3.165h3.28c.935 0 1.409-.46 1.136-1.367-.623-1.909-4.838-5.835-5.028-6.098z" fill="#fff"/></g><defs><clipPath id="clip0"><path fill="#fff" transform="translate(15 15)" d="M0 0h30v30H0z"/></clipPath></defs></svg>